<?xml version="1.0" standalone="no"?><!DOCTYPE svg PUBLIC "-//W3C//DTD SVG 1.1//EN" "http://www.w3.org/Graphics/SVG/1.1/DTD/svg11.dtd">
<svg
        class="icon" viewBox="0 0 1024 1024" version="1.1" xmlns="http://www.w3.org/2000/svg"
        width="32" height="32"><path d="M140.416226 806.377425l110.617284-128.22575c82.624339 54.179894 161.636684 84.881834 247.421516 84.881835 92.557319 0 133.643739-33.410935 133.643739-82.17284 0-58.243386-95.717813-84.881834-192.790123-116.938271-116.938272-37.474427-252.388007-97.52381-252.388007-226.652558 0-140.416226 135.449735-239.294533 343.13933-239.294532 135.449735 0 237.488536 47.407407 315.146384 96.169312L735.943563 317.855379c-65.918871-38.828924-130.483245-66.821869-199.562611-66.821869-82.624339 0-121.904762 30.70194-121.904762 74.948853 0 56.888889 90.751323 78.109347 187.823634 108.359789 121.904762 38.828924 257.354497 90.299824 257.354497 235.23104 0 136.352734-126.871252 246.518519-367.971781 246.518519-123.710758 0.451499-260.514991-45.601411-351.266314-109.714286z"
                                     fill="#000000"></path></svg>