<svg class="icon" viewBox="0 0 1024 1024" version="1.1" xmlns="http://www.w3.org/2000/svg" width="48" height="48"><path d="M873.835151 971.216495c-26.391753 0-48.824742-10.556701-68.618557-29.030928L492.474326 629.443299c-2.639175-2.639175-6.597938-2.639175-7.917526 0l-76.536082 76.536082c-27.71134 27.71134-63.340206 42.226804-102.927836 42.226805-38.268041 0-75.216495-14.515464-102.927835-42.226805l-133.27835-131.958762C41.175357 546.309278 26.659893 509.360825 26.659893 471.092784s14.515464-75.216495 42.226804-102.927836L394.824841 42.226804C422.536181 14.515464 458.165047 0 497.752676 0c38.268041 0 75.216495 14.515464 102.927835 42.226804l133.278351 133.278351c27.71134 27.71134 42.226804 63.340206 42.226804 102.927835s-14.515464 75.216495-42.226804 102.927835l-77.85567 77.85567c-1.319588 1.319588-1.319588 1.319588-1.319588 2.639175s0 2.639175 1.319588 2.639175l312.742268 312.742268c40.907216 40.907216 36.948454 108.206186-6.597938 155.711341-25.072165 23.752577-56.742268 38.268041-88.412371 38.268041 1.319588 0 0 0 0 0zM488.515563 548.948454c21.113402 0 43.546392 7.917526 60.701031 25.072165l314.061855 314.061855c5.278351 5.278351 9.237113 5.278351 11.876289 5.278351 9.237113 0 21.113402-6.597938 29.030928-14.515464 11.876289-13.195876 18.474227-34.309278 7.917526-44.86598L598.041336 519.917526c-15.835052-15.835052-23.752577-36.948454-23.752577-59.381444s9.237113-43.546392 23.752577-59.381443l77.85567-77.85567c11.876289-11.876289 19.793814-29.030928 19.793815-46.185567 0-17.154639-6.597938-34.309278-19.793815-46.185567l-131.958763-131.958763C532.061955 85.773196 514.907315 79.175258 497.752676 79.175258c-17.154639 0-34.309278 6.597938-46.185567 19.793814L125.628965 423.587629c-13.195876 13.195876-19.793814 29.030928-19.793814 47.505155 0 17.154639 6.597938 34.309278 19.793814 46.185567l133.27835 133.27835c11.876289 11.876289 29.030928 19.793814 46.185567 19.793814s34.309278-6.597938 46.185567-19.793814l76.536083-76.536082c17.154639-17.154639 38.268041-25.072165 60.701031-25.072165z" fill="#13227a"></path><path d="M690.41247 406.43299c-10.556701 0-19.793814-3.958763-27.71134-11.876289L380.309377 112.164948c-15.835052-15.835052-15.835052-40.907216 0-55.42268 15.835052-15.835052 40.907216-15.835052 55.422681 0l282.391752 282.391753c15.835052 15.835052 15.835052 40.907216 0 55.42268-6.597938 7.917526-17.154639 11.876289-27.71134 11.876289zM398.783604 698.061856c-10.556701 0-19.793814-3.958763-27.71134-11.876289L88.680511 405.113402c-15.835052-15.835052-15.835052-40.907216 0-55.42268 15.835052-15.835052 40.907216-15.835052 55.422681 0l282.391752 282.391752c15.835052 15.835052 15.835052 40.907216 0 55.422681-7.917526 6.597938-18.474227 10.556701-27.71134 10.556701zM532.061955 651.876289c-10.556701 0-19.793814-3.958763-27.711341-11.876289-15.835052-15.835052-15.835052-40.907216 0-55.42268l108.206186-108.206186c15.835052-15.835052 40.907216-15.835052 55.42268 0 15.835052 15.835052 15.835052 40.907216 0 55.42268l-108.206185 108.206186c-7.917526 9.237113-18.474227 11.876289-27.71134 11.876289zM525.464016 910.515464H126.948553c-22.43299 0-39.587629-17.154639-39.587629-39.587629s17.154639-39.587629 39.587629-39.587629h398.515463c22.43299 0 39.587629 17.154639 39.587629 39.587629s-17.154639 39.587629-39.587629 39.587629zM586.165047 1024H66.247522c-22.43299 0-39.587629-17.154639-39.587629-39.587629s17.154639-39.587629 39.587629-39.587629h519.917525c22.43299 0 39.587629 17.154639 39.587629 39.587629s-18.474227 39.587629-39.587629 39.587629z" fill="#13227a"></path></svg>