<svg class="icon" viewBox="0 0 1024 1024" version="1.1" xmlns="http://www.w3.org/2000/svg" width="48" height="48"><path d="M415.44 584l-1.356 0c-6.098 26-12.876 55.742-19.312 80.816L389.352 686l51.498 0-5.42-21.184C428.652 639.742 422.214 608 415.44 584z" fill="#1296db"></path><path d="M964 304l-152.24 0L562.632 79.934C566.07 72.676 568 64.564 568 56c0-30.928-25.07-56-56-56-30.928 0-56 25.072-56 56 0 10.6 2.948 20.512 8.064 28.964L197.066 304 60 304c-33.136 0-60 29.218-60 65.258l0 589.484C0 994.784 26.864 1024 60 1024l904 0c33.136 0 60-29.216 60-65.258L1024 369.258C1024 333.218 997.136 304 964 304zM492.25 108.406C498.394 110.722 505.046 112 512 112c9.216 0 17.906-2.24 25.574-6.186L757.926 304l-504.1 0L492.25 108.406zM195.21 794.78c-32.866 0-68.1-12.198-94.188-36.254l34.218-41.672c17.958 15.246 41.334 25.748 61.324 25.748 22.362 0 32.864-8.468 32.864-22.022 0-14.568-13.89-19.312-35.574-28.458l-32.188-13.552c-26.426-10.504-51.158-32.526-51.158-69.118 0-42.35 37.946-76.23 91.476-76.23 29.138 0 59.968 11.18 81.992 33.204l-30.154 37.946c-16.602-12.536-32.188-19.312-51.838-19.312-18.634 0-30.154 7.456-30.154 21.006 0 13.892 15.926 19.312 38.286 28.122l31.51 12.538c31.17 12.536 49.804 33.542 49.804 69.116C291.432 757.848 256.196 794.78 195.21 794.78zM466.938 790l-14.568-58-74.538 0-14.568 58L301.6 790l78.266-252 72.504 0 78.264 252L466.938 790zM716 790l-158 0L558 538l60 0 0 202 98 0L716 790zM922 790l-162 0L760 538l160 0 0 50-100 0 0 46 84 0 0 52-84 0 0 54 102 0L922 790z" fill="#1296db"></path></svg>